<?xml version="1.0" encoding="UTF-8"?><svg id="Layer_2" xmlns="http://www.w3.org/2000/svg" viewBox="0 0 720.37 604.94"><defs><style>.cls-1{fill:none;stroke:#3662e3;stroke-linecap:round;stroke-linejoin:round;stroke-width:3px;}</style></defs><g id="Layer_1-2"><path class="cls-1" d="M718.87,411.62c-124.67,201.4-392.55,253.22-593.85,112.3C-2.71,434.49-51.42,237.99,76.49,95.04,178.82-19.32,352.1-27.79,479.64,63.97c102.03,73.41,118.37,207.08,36.5,298.57-65.49,73.19-184.75,84.91-266.37,26.19-65.3-46.98-75.76-132.53-23.36-191.08,41.92-46.84,118.24-54.34,170.48-16.76,41.79,30.07,48.48,84.82,14.95,122.29-26.83,29.98-75.67,34.78-109.11,10.73-26.75-19.24-31.03-54.29-9.57-78.27"/></g></svg>